<?xml version="1.0" standalone="no"?>
<!DOCTYPE svg PUBLIC "-//W3C//DTD SVG 20010904//EN"
 "http://www.w3.org/TR/2001/REC-SVG-20010904/DTD/svg10.dtd">
<svg version="1.0" xmlns="http://www.w3.org/2000/svg"
 width="1085.000000pt" height="1085.000000pt" viewBox="0 0 1085.000000 1085.000000"
 preserveAspectRatio="xMidYMid meet">
<metadata>
Created by potrace 1.11, written by Peter Selinger 2001-2013
</metadata>
<g transform="translate(0.000000,1085.000000) scale(0.100000,-0.100000)"
fill="#000000" stroke="none">
<path d="M585 10825 c-152 -34 -252 -90 -365 -204 -97 -98 -145 -178 -184
-312 l-25 -84 0 -4795 c0 -3989 2 -4804 13 -4850 70 -285 277 -492 556 -555
70 -16 401 -17 4845 -17 5316 1 4836 -6 4999 70 225 106 371 306 411 560 4 24
7 2182 7 4796 0 3594 -3 4768 -12 4812 -30 152 -90 264 -200 375 -93 94 -182
149 -305 191 l-70 23 -4805 2 c-3991 1 -4815 -1 -4865 -12z"/>
</g>
</svg>
